<svg xmlns="http://www.w3.org/2000/svg" version="1.1" xmlns:xlink="http://www.w3.org/1999/xlink" xmlns:svgjs="http://svgjs.com/svgjs" width="1440" height="560" preserveAspectRatio="none" viewBox="0 0 1440 560"><g clip-path="url(&quot;#SvgjsClipPath1000&quot;)" fill="none"><rect width="1440" height="560" x="0" y="0" fill="rgba(21, 64, 107, 1)"></rect><circle r="93.335" cx="-25.99" cy="11.41" stroke="#365aa3" stroke-opacity="0.25" stroke-width="2"></circle><circle r="93.335" cx="402.85" cy="387.08" stroke="#365aa3" stroke-opacity="0.25" stroke-width="2"></circle><circle r="93.335" cx="715.25" cy="826.67" stroke="#365aa3" stroke-opacity="0.25" stroke-width="2"></circle><circle r="175.945" cx="954.4" cy="47.59" stroke="#365aa3" stroke-opacity="0.25" stroke-width="2"></circle><circle r="157.5" cx="601.38" cy="200.81" stroke="#365aa3" stroke-opacity="0.25" stroke-width="2"></circle><circle r="109.565" cx="820.29" cy="138.84" stroke="#365aa3" stroke-opacity="0.25" stroke-width="2"></circle><circle r="144.26" cx="445.21" cy="5.46" stroke="#365aa3" stroke-opacity="0.25" stroke-width="2"></circle><circle r="166.42" cx="829.11" cy="80.59" stroke="#365aa3" stroke-opacity="0.25" stroke-width="2"></circle><circle r="160" cx="816.03" cy="29.61" stroke="#365aa3" stroke-opacity="0.25" stroke-width="2"></circle><circle r="177.795" cx="1439.61" cy="155.51" stroke="#365aa3" stroke-opacity="0.25" stroke-width="2"></circle><circle r="147.43" cx="1267.53" cy="281.79" stroke="#365aa3" stroke-opacity="0.25" stroke-width="2"></circle><circle r="152.035" cx="1081.01" cy="430.32" stroke="#365aa3" stroke-opacity="0.25" stroke-width="2"></circle><circle r="132.445" cx="561.82" cy="365.12" stroke="#365aa3" stroke-opacity="0.25" stroke-width="2"></circle><circle r="54.545" cx="579.1" cy="186.09" stroke="#365aa3" stroke-opacity="0.25" stroke-width="2"></circle><circle r="140.585" cx="94.19" cy="310.23" stroke="#365aa3" stroke-opacity="0.25" stroke-width="2"></circle><circle r="97.145" cx="507.87" cy="197.33" stroke="#365aa3" stroke-opacity="0.25" stroke-width="2"></circle><circle r="48.16" cx="569.35" cy="241.69" stroke="#365aa3" stroke-opacity="0.25" stroke-width="2"></circle><circle r="167.585" cx="1319.96" cy="442.74" stroke="#365aa3" stroke-opacity="0.25" stroke-width="2"></circle><circle r="119.135" cx="1276.07" cy="147.89" stroke="#365aa3" stroke-opacity="0.25" stroke-width="2"></circle><circle r="78.47" cx="822.19" cy="323.76" stroke="#365aa3" stroke-opacity="0.25" stroke-width="2"></circle><circle r="132.51" cx="1250.53" cy="253.65" stroke="#365aa3" stroke-opacity="0.25" stroke-width="2"></circle><circle r="81.81" cx="35.61" cy="372.15" stroke="#365aa3" stroke-opacity="0.25" stroke-width="2"></circle><circle r="122.685" cx="224.74" cy="12.37" stroke="#365aa3" stroke-opacity="0.25" stroke-width="2"></circle><circle r="102.975" cx="320.73" cy="30.74" stroke="#365aa3" stroke-opacity="0.25" stroke-width="2"></circle><circle r="133.22" cx="1108.45" cy="318.23" stroke="#365aa3" stroke-opacity="0.25" stroke-width="2"></circle><circle r="64.345" cx="332.86" cy="445.79" stroke="#365aa3" stroke-opacity="0.25" stroke-width="2"></circle><circle r="120.66" cx="667.62" cy="555.82" stroke="#365aa3" stroke-opacity="0.25" stroke-width="2"></circle><circle r="135.285" cx="479.36" cy="370.18" stroke="#365aa3" stroke-opacity="0.25" stroke-width="2"></circle><circle r="65.475" cx="41.25" cy="15.12" stroke="#365aa3" stroke-opacity="0.25" stroke-width="2"></circle><circle r="146.095" cx="1352.23" cy="433.7" stroke="#365aa3" stroke-opacity="0.25" stroke-width="2"></circle><circle r="92.73" cx="1173.22" cy="476.17" stroke="#365aa3" stroke-opacity="0.25" stroke-width="2"></circle><circle r="122.96" cx="1104.41" cy="398" stroke="#365aa3" stroke-opacity="0.25" stroke-width="2"></circle><circle r="157.325" cx="614.55" cy="325.57" stroke="#365aa3" stroke-opacity="0.25" stroke-width="2"></circle><circle r="83.7" cx="1431.85" cy="336.44" stroke="#365aa3" stroke-opacity="0.25" stroke-width="2"></circle><circle r="182.26" cx="290.93" cy="102.39" stroke="#365aa3" stroke-opacity="0.25" stroke-width="2"></circle><circle r="92.215" cx="880.38" cy="365.62" stroke="#365aa3" stroke-opacity="0.25" stroke-width="2"></circle><circle r="82.13" cx="333.62" cy="148.91" stroke="#365aa3" stroke-opacity="0.25" stroke-width="2"></circle><circle r="144.505" cx="71.75" cy="72.91" stroke="#365aa3" stroke-opacity="0.25" stroke-width="2"></circle><circle r="52.425" cx="978.46" cy="556.9" stroke="#365aa3" stroke-opacity="0.25" stroke-width="2"></circle><circle r="79.105" cx="736.94" cy="229.2" stroke="#365aa3" stroke-opacity="0.25" stroke-width="2"></circle></g><defs><clipPath id="SvgjsClipPath1000"><rect width="1440" height="560" x="0" y="0"></rect></clipPath></defs></svg>