<?xml version="1.0" standalone="no"?>
<!DOCTYPE svg PUBLIC "-//W3C//DTD SVG 20010904//EN"
 "http://www.w3.org/TR/2001/REC-SVG-20010904/DTD/svg10.dtd">
<svg version="1.0" xmlns="http://www.w3.org/2000/svg"
 width="218.000000pt" height="66.000000pt" viewBox="0 0 218.000000 66.000000"
 preserveAspectRatio="xMidYMid meet">

<g transform="translate(0.000000,66.000000) scale(0.100000,-0.100000)"
fill="#000000" stroke="none">
<path d="M0 330 l0 -330 1090 0 1090 0 0 330 0 330 -1090 0 -1090 0 0 -330z
m410 195 c20 -14 46 -25 59 -25 36 0 77 -27 91 -60 8 -20 19 -30 34 -30 25 0
71 -29 91 -57 57 -82 -6 -213 -104 -213 -46 0 -40 26 7 34 124 19 105 206 -21
206 -23 0 -29 5 -34 31 -7 37 -44 63 -76 55 -17 -4 -30 1 -47 19 -53 56 -145
51 -199 -10 -26 -30 -31 -44 -31 -88 0 -47 -3 -54 -29 -68 -34 -20 -47 -61
-31 -100 12 -27 43 -45 89 -51 46 -6 36 -28 -12 -28 -54 0 -91 26 -107 76 -15
45 -6 81 29 119 21 22 30 44 34 79 6 60 30 94 88 124 54 29 116 24 169 -13z
m578 -123 c35 -42 77 -93 93 -112 l31 -35 -5 97 c-2 57 -9 104 -17 113 -11 13
-8 15 19 15 32 0 39 -8 21 -26 -5 -5 -11 -77 -12 -159 l-3 -149 -115 137 -115
137 -3 -101 c-2 -73 1 -109 12 -130 14 -29 14 -29 -15 -29 -26 0 -29 2 -19 19
5 11 10 73 10 139 0 94 -3 122 -15 132 -25 21 -17 30 28 29 40 0 45 -4 105
-77z m257 49 c0 -34 -30 -51 -51 -29 -25 24 -10 60 24 56 21 -2 27 -8 27 -27z
m5 -160 c0 -55 3 -106 6 -115 5 -13 -1 -16 -30 -16 l-36 0 0 99 c0 69 -4 102
-12 108 -12 7 -4 10 65 22 4 0 7 -44 7 -98z m475 85 c80 -34 87 -165 11 -206
-32 -17 -103 -17 -134 -1 -33 18 -55 57 -55 101 0 49 24 87 66 105 41 18 70
18 112 1z m175 -5 c0 -18 1 -18 40 1 82 41 116 6 122 -124 l4 -88 -33 0 -33 0
0 84 c0 103 -12 123 -63 103 l-32 -14 0 -86 0 -87 -35 0 -35 0 3 95 c3 63 0
100 -8 110 -9 11 -5 14 22 18 18 2 36 5 41 5 4 1 7 -6 7 -17z m-510 -26 c12
-19 25 -35 29 -35 16 0 43 40 38 55 -5 11 1 15 25 15 l32 0 -44 -45 -43 -44
28 -43 c15 -24 37 -53 48 -65 l20 -23 -39 0 c-35 0 -42 4 -64 40 -14 22 -27
40 -31 40 -15 0 -51 -51 -46 -64 5 -12 -1 -16 -25 -16 l-32 0 48 49 49 49 -23
34 c-13 18 -35 45 -48 61 l-26 27 41 0 c36 0 44 -4 63 -35z m-980 0 c0 -17 25
-20 35 -5 9 15 25 2 25 -21 0 -12 7 -19 19 -19 23 0 36 -16 21 -25 -15 -10
-12 -35 5 -35 20 0 19 -27 -1 -38 -13 -7 -14 -13 -5 -31 11 -19 9 -21 -14 -21
-20 0 -25 -5 -25 -25 0 -26 -23 -35 -36 -14 -4 8 -13 4 -25 -12 -17 -23 -19
-23 -31 -6 -8 10 -23 16 -38 15 -19 -2 -25 2 -25 17 0 13 -7 20 -20 20 -15 0
-19 6 -17 25 1 15 -5 30 -15 38 -17 12 -17 14 6 31 16 12 20 21 12 25 -19 12
-12 34 12 38 14 2 23 11 25 25 3 20 6 21 24 12 17 -9 23 -8 30 5 11 20 38 21
38 1z"/>
<path d="M1620 351 c-29 -54 3 -158 53 -176 24 -8 31 -6 43 10 19 25 18 75 -2
125 -24 59 -73 80 -94 41z"/>
<path d="M343 280 c-30 -27 -36 -55 -21 -87 38 -79 148 -51 148 38 0 30 -44
69 -78 69 -15 0 -38 -9 -49 -20z m87 -16 c16 -16 19 -66 6 -80 -27 -26 -55
-26 -81 1 -27 26 -27 53 -2 80 14 15 62 14 77 -1z"/>
<path d="M370 234 c-11 -12 -10 -18 3 -32 16 -15 18 -15 34 0 13 14 14 20 3
32 -7 9 -16 16 -20 16 -4 0 -13 -7 -20 -16z"/>
</g>
</svg>
